<svg class="svg-icon" style="width: 1em; height: 1em;vertical-align: middle;fill: currentColor;overflow: hidden;" viewBox="0 0 1024 1024" version="1.1" xmlns="http://www.w3.org/2000/svg"><path d="M172.714667 618.666667A186.453333 186.453333 0 0 1 106.666667 476.288c0-99.136 77.568-180.288 175.808-187.093333C315.733333 195.328 405.930667 128 512 128c125.184 0 228.266667 93.781333 241.706667 214.336h1.493333c89.536 0 162.133333 71.957333 162.133333 160.725333 0 45.397333-18.986667 86.378667-49.472 115.605334H172.714667zM313.6 842.410667H746.453333a26.794667 26.794667 0 0 1 0 53.589333H313.6a26.794667 26.794667 0 0 1 0-53.589333z m-90.069333-142.869334h432.810666a26.794667 26.794667 0 1 1 0 53.568H223.530667a26.794667 26.794667 0 0 1 0-53.568z m540.437333 0h0.469333a26.794667 26.794667 0 1 1 0 53.568h-0.469333a26.794667 26.794667 0 0 1 0-53.568z m90.090667 142.869334h0.448a26.794667 26.794667 0 0 1 0 53.589333h-0.448a26.794667 26.794667 0 0 1 0-53.589333z" fill="#B6936D" /></svg>