<svg class="svg-icon" style="width: 1em; height: 1em;vertical-align: middle;fill: currentColor;overflow: hidden;" viewBox="0 0 1024 1024" version="1.1" xmlns="http://www.w3.org/2000/svg"><path d="M766.528 752.512l1.493333 0.853333a24.362667 24.362667 0 0 1 7.893334 34.922667l-71.786667 104.469333c-7.893333 11.456-23.253333 14.933333-35.306667 7.978667l-1.493333-0.853333a24.362667 24.362667 0 0 1-7.893333-34.901334l71.786666-104.469333a26.666667 26.666667 0 0 1 35.306667-8z m-244.437333 0l1.493333 0.853333a24.362667 24.362667 0 0 1 7.893333 34.922667l-71.786666 104.469333c-7.893333 11.456-23.253333 14.933333-35.306667 7.978667l-1.493333-0.853333a24.362667 24.362667 0 0 1-7.893334-34.901334l71.765334-104.469333a26.666667 26.666667 0 0 1 35.328-8z m-222.229334 0l1.493334 0.853333a24.362667 24.362667 0 0 1 7.893333 34.922667l-71.786667 104.469333c-7.893333 11.456-23.253333 14.933333-35.306666 7.978667l-1.493334-0.853333a24.362667 24.362667 0 0 1-7.893333-34.901334l71.786667-104.469333a26.666667 26.666667 0 0 1 35.306666-8z" fill="#50ACFB" /><path d="M693.226667 437.333333h46.122666C814.08 437.333333 874.666667 497.024 874.666667 570.666667S814.08 704 739.349333 704h-473.6v-0.32C165.12 697.92 85.333333 615.68 85.333333 515.093333c0-81.344 52.202667-150.698667 125.44-177.28C243.562667 240.704 336.554667 170.666667 446.144 170.666667c137.024 0 248.085333 109.44 248.085333 244.437333 0 7.488-0.341333 14.912-1.024 22.229333z" fill="#6A91F1" /><path d="M642.218667 210.88a155.626667 155.626667 0 0 1 157.632-102.037333 133.333333 133.333333 0 0 0 130.901333 218.154666 155.989333 155.989333 0 0 1-96.341333 85.653334 132.864 132.864 0 0 0-54.848-11.754667h-45.290667a288.128 288.128 0 0 0-92.053333-190.016z" fill="#FFC303" /></svg>