<svg
      xmlns="http://www.w3.org/2000/svg"
      width="20"
      height="20"
      fill="none"
      viewBox="0 0 20 20"
    >
    <g clipPath="url(#clip0_1770_1836)">
        <path
          fill="#8B8BA3"
          d="M19.77 18.67l-3.76-3.76a9.061 9.061 0 002.12-5.83C18.13 4.06 14.07 0 9.06 0 4.06 0 0 4.06 0 9.08c0 5.02 4.06 9.08 9.06 9.08 2.23 0 4.27-.81 5.85-2.15l3.76 3.76c.3.3.8.3 1.1 0 .31-.3.31-.8 0-1.1zM9.06 16.6c-4.14 0-7.51-3.37-7.51-7.52 0-4.15 3.37-7.52 7.51-7.52s7.51 3.37 7.51 7.52c0 4.15-3.37 7.52-7.51 7.52z"
        ></path>
    </g>
    <defs>
        <clipPath id="clip0_1770_1836">
            <path fill="#fff" d="M0 0H20V20H0z"></path>
        </clipPath>
    </defs>
</svg>