<svg class="svg-icon" style="width: 1em; height: 1em;vertical-align: middle;fill: currentColor;overflow: hidden;" viewBox="0 0 1024 1024" version="1.1" xmlns="http://www.w3.org/2000/svg"><path d="M152.32 576A185.152 185.152 0 0 1 106.666667 454.101333c0-98.88 77.568-179.84 175.808-186.624C315.733333 173.824 405.930667 106.666667 512 106.666667c125.184 0 228.266667 93.546667 241.706667 213.802666h1.493333c89.536 0 162.133333 71.786667 162.133333 160.341334 0 35.626667-11.754667 68.565333-31.637333 95.189333H152.341333z m49.706667 64h601.984l3.306666 1.92c10.453333 6.186667 14.058667 19.776 7.978667 30.442667-6.037333 10.645333-19.413333 14.293333-29.909333 8.128l-24.042667-14.101334v28.224c0 12.309333-9.813333 22.272-21.909333 22.272a22.101333 22.101333 0 0 1-21.909334-22.272v-28.224l-24.042666 14.122667a21.717333 21.717333 0 0 1-29.909334-8.106667 22.485333 22.485333 0 0 1 8.021334-30.442666l1.322666-0.789334H333.12l1.28 0.768c10.474667 6.144 14.08 19.754667 8.021333 30.421334-6.058667 10.645333-19.413333 14.293333-29.909333 8.128l-24.064-14.101334v28.224c0 12.309333-9.813333 22.272-21.888 22.272a22.101333 22.101333 0 0 1-21.909333-22.272v-28.224l-24.042667 14.122667a21.717333 21.717333 0 0 1-29.930667-8.106667 22.485333 22.485333 0 0 1 8.021334-30.442666L202.026667 640z m132.394666 202.368c10.453333 6.186667 14.058667 19.776 8 30.442667-6.058667 10.624-19.413333 14.293333-29.909333 8.106666l-24.064-14.08v28.224c0 12.309333-9.813333 22.272-21.888 22.272a22.101333 22.101333 0 0 1-21.909333-22.272v-28.245333l-24.042667 14.144a21.717333 21.717333 0 0 1-29.930667-8.128 22.485333 22.485333 0 0 1 8.021334-30.421333l24.042666-14.144-24.042666-14.122667a22.506667 22.506667 0 0 1-8.042667-30.442667c6.058667-10.666667 19.456-14.293333 29.930667-8.128l24.064 14.08v-28.224c0-12.288 9.813333-22.272 21.909333-22.272s21.909333 9.984 21.909333 22.272v28.245334l24.042667-14.122667a21.696 21.696 0 0 1 29.909333 8.149333c6.058667 10.666667 2.453333 24.277333-8 30.421334l-24.064 14.144 24.064 14.101333z m236.437334-89.066667c10.453333 6.144 14.08 19.754667 8 30.421334-6.037333 10.645333-19.413333 14.293333-29.909334 8.106666l-24.042666-14.08v28.224c0 12.309333-9.813333 22.272-21.909334 22.272a22.101333 22.101333 0 0 1-21.909333-22.272v-28.224l-24.042667 14.122667a21.717333 21.717333 0 0 1-29.930666-8.106667 22.485333 22.485333 0 0 1 8.021333-30.442666l24.042667-14.144-24.042667-14.122667a22.506667 22.506667 0 0 1-8.021333-30.421333c6.058667-10.666667 19.434667-14.293333 29.930666-8.149334l24.042667 14.101334v-28.224c0-12.288 9.813333-22.272 21.909333-22.272s21.909333 9.984 21.909334 22.272v28.224l24.042666-14.122667a21.696 21.696 0 0 1 29.909334 8.170667c6.058667 10.666667 2.474667 24.277333-8 30.421333l-24.042667 14.122667 24.042667 14.122666z m236.458666 89.066667c10.453333 6.186667 14.058667 19.776 7.978667 30.442667-6.037333 10.624-19.413333 14.293333-29.909333 8.106666l-24.042667-14.08v28.224c0 12.309333-9.813333 22.272-21.909333 22.272a22.101333 22.101333 0 0 1-21.909334-22.272v-28.245333l-24.042666 14.144a21.717333 21.717333 0 0 1-29.909334-8.128 22.485333 22.485333 0 0 1 8.021334-30.421333l24.042666-14.144-24.042666-14.122667a22.506667 22.506667 0 0 1-8.042667-30.442667c6.058667-10.666667 19.456-14.293333 29.930667-8.128l24.042666 14.08v-28.224c0-12.288 9.813333-22.272 21.909334-22.272s21.909333 9.984 21.909333 22.272v28.245334l24.064-14.122667a21.696 21.696 0 0 1 29.909333 8.149333c6.058667 10.666667 2.453333 24.277333-8 30.421334l-24.064 14.144 24.064 14.101333z" fill="#50ACFB" /></svg>