<svg class="svg-icon" style="width: 1em; height: 1em;vertical-align: middle;fill: currentColor;overflow: hidden;" viewBox="0 0 1024 1024" version="1.1" xmlns="http://www.w3.org/2000/svg"><path d="M512 382.229333C553.685333 318.997333 624.981333 277.333333 705.92 277.333333 834.496 277.333333 938.666667 382.4 938.666667 512s-104.192 234.666667-232.746667 234.666667c-80.938667 0-152.234667-41.664-193.92-104.896C470.314667 705.002667 399.018667 746.666667 318.08 746.666667 189.504 746.666667 85.333333 641.6 85.333333 512s104.192-234.666667 232.746667-234.666667c80.938667 0 152.234667 41.664 193.92 104.896z m-193.92 286.208c85.674667 0 155.136-70.037333 155.136-156.437333 0-86.4-69.461333-156.437333-155.157333-156.437333-85.696 0-155.157333 70.037333-155.157334 156.437333 0 86.4 69.461333 156.437333 155.157334 156.437333z m387.84 0c85.717333 0 155.178667-70.037333 155.178667-156.437333 0-86.4-69.461333-156.437333-155.157334-156.437333-85.696 0-155.157333 70.037333-155.157333 156.437333 0 86.4 69.461333 156.437333 155.157333 156.437333z" fill="#4F748D" /></svg>