<svg class="svg-icon" style="width: 1em; height: 1em;vertical-align: middle;fill: currentColor;overflow: hidden;" viewBox="0 0 1024 1024" version="1.1" xmlns="http://www.w3.org/2000/svg"><path d="M167.936 597.333333a189.162667 189.162667 0 0 1 114.538667-328.064C315.733333 174.549333 405.930667 106.666667 512 106.666667c125.184 0 228.266667 94.592 241.706667 216.192h1.493333A162.133333 162.133333 0 0 1 872.106667 597.333333H167.914667z m37.802667 265.962667h432.362666a27.029333 27.029333 0 1 1 0 54.037333H205.738667a27.029333 27.029333 0 0 1 0-54.037333z m108.096-108.096h432.362666a27.029333 27.029333 0 0 1 0 54.037333H313.813333a27.029333 27.029333 0 1 1 0-54.037333z m-90.069334-108.096h432.362667a27.029333 27.029333 0 0 1 0 54.058667H223.765333a27.029333 27.029333 0 0 1 0-54.058667z m540.437334 0a27.029333 27.029333 0 1 1 0 54.058667 27.029333 27.029333 0 0 1 0-54.058667z m90.069333 108.096a27.029333 27.029333 0 1 1 0 54.037333 27.029333 27.029333 0 0 1 0-54.037333z m-108.074667 108.096a27.029333 27.029333 0 1 1 0 54.037333 27.029333 27.029333 0 0 1 0-54.037333z" fill="#B6936D" /></svg>