<svg class="svg-icon" style="width: 1em; height: 1em;vertical-align: middle;fill: currentColor;overflow: hidden;" viewBox="0 0 1024 1024" version="1.1" xmlns="http://www.w3.org/2000/svg"><path d="M768.298667 756.181333l1.493333 0.853334a24.64 24.64 0 0 1 8 35.285333l-72.533333 105.557333a26.944 26.944 0 0 1-35.690667 8.085334l-1.493333-0.853334a24.64 24.64 0 0 1-7.978667-35.285333l72.533333-105.578667a26.944 26.944 0 0 1 35.669334-8.064z m-246.997334 0l1.493334 0.853334a24.64 24.64 0 0 1 7.978666 35.285333l-72.533333 105.557333a26.944 26.944 0 0 1-35.690667 8.085334l-1.493333-0.853334a24.64 24.64 0 0 1-7.978667-35.285333l72.533334-105.578667a26.944 26.944 0 0 1 35.690666-8.064z m-224.576 0l1.493334 0.853334a24.64 24.64 0 0 1 8 35.285333l-72.533334 105.557333a26.944 26.944 0 0 1-35.690666 8.085334l-1.493334-0.853334a24.64 24.64 0 0 1-8-35.285333l72.533334-105.578667a26.944 26.944 0 0 1 35.690666-8.064z" fill="#50ACFB" /><path d="M617.557333 188.074667a143.722667 143.722667 0 0 1 184.746667 219.861333 134.570667 134.570667 0 0 0-43.306667-7.104h-23.296a291.605333 291.605333 0 0 0-118.144-212.757333z m111.296-118.336a17.962667 17.962667 0 0 1 16 19.733333l-3.754666 35.733333a17.962667 17.962667 0 0 1-35.733334-3.754666l3.754667-35.733334a17.962667 17.962667 0 0 1 19.733333-16z m143.573334 70.037333a17.962667 17.962667 0 0 1-0.426667 25.386667l-25.856 24.96a17.962667 17.962667 0 0 1-24.96-25.834667l25.856-24.96a17.962667 17.962667 0 0 1 25.386667 0.426667z m64.981333 145.92a17.962667 17.962667 0 0 1-16.64 19.2l-35.84 2.496a17.962667 17.962667 0 1 1-2.517333-35.84l35.84-2.517333a17.962667 17.962667 0 0 1 19.157333 16.682666z m-44.032 153.578667a17.962667 17.962667 0 0 1-25.088 3.968l-29.056-21.12a17.962667 17.962667 0 0 1 21.12-29.056l29.056 21.12c8.021333 5.824 9.813333 17.066667 3.968 25.088zM573.866667 108.373333a17.962667 17.962667 0 0 1 24.96 4.842667l20.053333 29.781333a17.962667 17.962667 0 1 1-29.76 20.096l-20.096-29.802666a17.962667 17.962667 0 0 1 4.842667-24.938667z" fill="#FFC303" /><path d="M693.226667 437.333333h46.122666C814.08 437.333333 874.666667 497.024 874.666667 570.666667S814.08 704 739.349333 704h-473.6v-0.32C165.12 697.92 85.333333 615.68 85.333333 515.093333c0-81.344 52.202667-150.698667 125.44-177.28C243.562667 240.704 336.554667 170.666667 446.144 170.666667c137.024 0 248.085333 109.44 248.085333 244.437333 0 7.488-0.341333 14.912-1.024 22.229333z" fill="#6A91F1" /></svg>