<svg class="svg-icon" style="width: 1em; height: 1em;vertical-align: middle;fill: currentColor;overflow: hidden;" viewBox="0 0 1024 1024" version="1.1" xmlns="http://www.w3.org/2000/svg"><path d="M401.984 842.368c10.453333 6.186667 14.058667 19.776 7.978667 30.442667-6.037333 10.624-19.413333 14.293333-29.909334 8.106666l-24.042666-14.08v28.224c0 12.309333-9.813333 22.272-21.909334 22.272a22.101333 22.101333 0 0 1-21.909333-22.272v-28.245333l-24.042667 14.144a21.717333 21.717333 0 0 1-29.909333-8.128 22.485333 22.485333 0 0 1 8.021333-30.421333l24.042667-14.144-24.042667-14.122667a22.506667 22.506667 0 0 1-8.042666-30.442667c6.058667-10.666667 19.456-14.293333 29.930666-8.128l24.042667 14.08v-28.224c0-12.288 9.813333-22.272 21.909333-22.272s21.909333 9.984 21.909334 22.272v28.245334l24.064-14.122667a21.696 21.696 0 0 1 29.909333 8.149333c6.058667 10.666667 2.453333 24.277333-8 30.421334l-24.064 14.144 24.064 14.101333z m313.706667-14.101333l24.064 14.101333c10.453333 6.186667 14.058667 19.776 8 30.442667-6.058667 10.624-19.413333 14.293333-29.909334 8.106666l-24.064-14.08v28.224c0 12.309333-9.813333 22.272-21.888 22.272a22.101333 22.101333 0 0 1-21.909333-22.272v-28.245333l-24.042667 14.144a21.717333 21.717333 0 0 1-29.930666-8.128 22.485333 22.485333 0 0 1 8.021333-30.421333l24.042667-14.144-24.042667-14.122667a22.506667 22.506667 0 0 1-8.042667-30.442667c6.058667-10.666667 19.456-14.293333 29.930667-8.128l24.064 14.08v-28.224c0-12.288 9.813333-22.272 21.909333-22.272s21.909333 9.984 21.909334 22.272v28.245334l24.042666-14.122667a21.696 21.696 0 0 1 29.909334 8.149333c6.058667 10.666667 2.453333 24.277333-8 30.421334l-24.064 14.144zM282.474667 267.114667C315.733333 173.674667 405.930667 106.666667 512 106.666667c125.184 0 228.266667 93.333333 241.706667 213.333333h1.493333c89.536 0 162.133333 71.637333 162.133333 160 0 88.362667-72.597333 160-162.133333 160H286.805333v-0.213333C186.538667 635.157333 106.666667 553.450667 106.666667 453.333333c0-98.666667 77.568-179.456 175.808-186.218666z" fill="#50ACFB" /></svg>