<svg class="svg-icon" style="width: 1em; height: 1em;vertical-align: middle;fill: currentColor;overflow: hidden;" viewBox="0 0 1024 1024" version="1.1" xmlns="http://www.w3.org/2000/svg"><path d="M621.354667 186.368a157.248 157.248 0 0 1 159.274666-103.104 134.741333 134.741333 0 0 0 132.266667 220.458667 157.632 157.632 0 0 1-97.322667 86.549333 134.250667 134.250667 0 0 0-55.424-11.882667h-45.781333a291.157333 291.157333 0 0 0-93.013333-192z" fill="#FFC303" /><path d="M389.930667 819.306667c10.432 6.186667 14.016 19.925333 7.978666 30.677333a21.504 21.504 0 0 1-29.824 8.192l-24-14.229333v28.48c0 12.416-9.770667 22.442667-21.845333 22.442666-12.053333 0-21.845333-10.026667-21.845333-22.442666V843.946667l-23.978667 14.250666c-10.453333 6.186667-23.808 2.538667-29.824-8.192a22.805333 22.805333 0 0 1 7.978667-30.677333l23.978666-14.272-23.978666-14.229333a22.826667 22.826667 0 0 1-8-30.677334 21.546667 21.546667 0 0 1 29.866666-8.213333l23.957334 14.229333v-28.48c0-12.373333 9.813333-22.464 21.866666-22.464s21.845333 10.069333 21.845334 22.464v28.48l23.978666-14.250666a21.504 21.504 0 0 1 29.824 8.234666 22.805333 22.805333 0 0 1-7.978666 30.677334l-24 14.229333 24 14.250667z m312.853333-14.250667l23.978667 14.250667c10.453333 6.186667 14.037333 19.925333 7.978666 30.677333a21.504 21.504 0 0 1-29.824 8.192l-23.978666-14.229333v28.48c0 12.416-9.792 22.442667-21.845334 22.442666s-21.845333-10.026667-21.845333-22.442666V843.946667l-23.978667 14.250666c-10.453333 6.186667-23.808 2.538667-29.845333-8.192a22.805333 22.805333 0 0 1 8-30.677333l23.978667-14.272-23.978667-14.229333a22.826667 22.826667 0 0 1-8.021333-30.677334 21.546667 21.546667 0 0 1 29.866666-8.213333l23.978667 14.229333v-28.48c0-12.373333 9.792-22.464 21.845333-22.464s21.845333 10.069333 21.845334 22.464v28.48l23.978666-14.250666a21.504 21.504 0 0 1 29.824 8.234666 22.805333 22.805333 0 0 1-7.978666 30.677334l-23.978667 14.229333zM671.893333 416h46.122667C792.746667 416 853.333333 475.690667 853.333333 549.333333S792.746667 682.666667 718.016 682.666667h-473.6v-0.32C143.786667 676.586667 64 594.346667 64 493.76c0-81.344 52.202667-150.698667 125.44-177.28C222.229333 219.370667 315.221333 149.333333 424.810667 149.333333c137.024 0 248.085333 109.44 248.085333 244.437334 0 7.488-0.341333 14.912-1.024 22.229333z" fill="#6A91F1" /></svg>