<svg class="svg-icon" style="width: 1em; height: 1em;vertical-align: middle;fill: currentColor;overflow: hidden;" viewBox="0 0 1024 1024" version="1.1" xmlns="http://www.w3.org/2000/svg"><path d="M617.557333 209.408a143.722667 143.722667 0 0 1 184.746667 219.861333 134.570667 134.570667 0 0 0-43.306667-7.104h-23.296a291.605333 291.605333 0 0 0-118.144-212.757333z m111.296-118.336a17.962667 17.962667 0 0 1 16 19.733333l-3.754666 35.733334a17.962667 17.962667 0 0 1-35.733334-3.754667l3.754667-35.733333a17.962667 17.962667 0 0 1 19.733333-16z m143.573334 70.037333a17.962667 17.962667 0 0 1-0.426667 25.386667l-25.856 24.96a17.962667 17.962667 0 0 1-24.96-25.834667l25.856-24.96a17.962667 17.962667 0 0 1 25.386667 0.426667z m64.981333 145.92a17.962667 17.962667 0 0 1-16.64 19.2l-35.84 2.496a17.962667 17.962667 0 1 1-2.517333-35.84l35.84-2.517333a17.962667 17.962667 0 0 1 19.157333 16.682667z m-44.032 153.578667a17.962667 17.962667 0 0 1-25.088 3.968l-29.056-21.12a17.962667 17.962667 0 0 1 21.12-29.056l29.056 21.12c8.021333 5.824 9.813333 17.066667 3.968 25.088zM573.866667 129.706667a17.962667 17.962667 0 0 1 24.96 4.842666l20.053333 29.781334a17.962667 17.962667 0 1 1-29.76 20.096l-20.096-29.802667a17.962667 17.962667 0 0 1 4.842667-24.938667z" fill="#FFC303" /><path d="M411.264 863.082667c10.432 6.208 14.016 19.946667 7.978667 30.677333a21.504 21.504 0 0 1-29.824 8.192l-24-14.208v28.458667c0 12.416-9.770667 22.464-21.845334 22.464-12.053333 0-21.845333-10.026667-21.845333-22.464v-28.458667l-23.978667 14.250667c-10.453333 6.186667-23.808 2.517333-29.824-8.192a22.805333 22.805333 0 0 1 7.978667-30.698667l23.978667-14.250667-23.978667-14.229333a22.826667 22.826667 0 0 1-8-30.698667 21.546667 21.546667 0 0 1 29.866667-8.192l23.957333 14.208v-28.458666c0-12.394667 9.813333-22.464 21.866667-22.464s21.845333 10.069333 21.845333 22.464v28.458666l23.978667-14.229333a21.504 21.504 0 0 1 29.824 8.213333 22.805333 22.805333 0 0 1-7.978667 30.677334l-24 14.250666 24 14.229334z m312.853333-14.229334l23.978667 14.229334c10.453333 6.208 14.037333 19.946667 7.978667 30.677333a21.504 21.504 0 0 1-29.824 8.192l-23.978667-14.208v28.458667c0 12.416-9.792 22.464-21.845333 22.464s-21.845333-10.026667-21.845334-22.464v-28.458667l-23.978666 14.250667c-10.453333 6.186667-23.808 2.517333-29.845334-8.192a22.805333 22.805333 0 0 1 8-30.698667l23.978667-14.250667-23.978667-14.229333a22.826667 22.826667 0 0 1-8.021333-30.698667 21.546667 21.546667 0 0 1 29.866667-8.192l23.978666 14.208v-28.458666c0-12.394667 9.792-22.464 21.845334-22.464s21.845333 10.069333 21.845333 22.464v28.458666l23.978667-14.229333a21.504 21.504 0 0 1 29.824 8.213333 22.805333 22.805333 0 0 1-7.978667 30.677334l-23.978667 14.250666zM693.226667 458.666667h46.122666C814.08 458.666667 874.666667 518.357333 874.666667 592S814.08 725.333333 739.349333 725.333333h-473.6v-0.32C165.12 719.253333 85.333333 637.013333 85.333333 536.426667c0-81.344 52.202667-150.698667 125.44-177.28C243.562667 262.037333 336.554667 192 446.144 192c137.024 0 248.085333 109.44 248.085333 244.437333 0 7.488-0.341333 14.912-1.024 22.229334z" fill="#50ACFB" /></svg>